# xmcd CD database file
# Copyright (C) 1993-1998 Ti Kan
#
# Track frame offsets:
#  183
#  27183
#  41800
#  53823
#  69075
#  81110
#  95065
#  109320
#  122473
#  139433
#  150028
#  164630
#  178228
#  192988
#  208318
#  222430
#  236990
#  251905
#  267623
#  282128
#
# Disc length: 3948 seconds
#
# Revision: 1
# Processed by: cddbd v1.4b41PL1 Copyright (c) Steve Scherf et al.
# Submitted via: KiC 2.1 - (C) 1996-1998 Alwin Hoogerdijk
#
DISCID=370f6a14
DTITLE=Mahalia Jackson - The Apollo Sessions (1946-1951)
DYEAR=1900
DGENRE=
TTITLE0=In The Upper Room
TTITLE1=Hands of God
TTITLE2=Get Away Jordon
TTITLE3=Said He Would
TTITLE4=Didn't it Rain
TTITLE5=Jesus Is Within Me
TTITLE6=Up in Jerusalem
TTITLE7=God Spoke to Me
TTITLE8=His Eye Is on the Sparrow 
TTITLE9=Amazing Grace
TTITLE10=It Pays to Serve the Lord
TTITLE11=I Will Move on up a Little Higher
TTITLE12=I Gave Up Everything to Follow Him
TTITLE13=I Wonder if I Will Ever Rest
TTITLE14=It's Real
TTITLE15=How I Got Over
TTITLE16=I Bowed on My Knees and Cried Holy 
TTITLE17=Come to Jesus
TTITLE18=Just As I Am
TTITLE19=The Lord's Prayer
EXTD=
EXTT0=
EXTT1=
EXTT2=
EXTT3=
EXTT4=
EXTT5=
EXTT6=
EXTT7=
EXTT8=
EXTT9=
EXTT10=
EXTT11=
EXTT12=
EXTT13=
EXTT14=
EXTT15=
EXTT16=
EXTT17=
EXTT18=
EXTT19=
PLAYORDER=
